<svg xmlns="http://www.w3.org/2000/svg" width="18" height="18">
    <defs/>
    <path fill="#2e6bdc" class="a" d="M9 0a9.011 9.011 0 00-9 9 9.011 9.011 0 009 9 9.011 9.011 0 009-9 9.011 9.011 0 00-9-9zm0 16.364A7.372 7.372 0 011.636 9 7.372 7.372 0 019 1.636 7.372 7.372 0 0116.364 9 7.372 7.372 0 019 16.364z"/>
    <path fill="#2e6bdc" class="a" d="M9.001 3.819A1.092 1.092 0 007.91 4.91a1.092 1.092 0 001.091 1.091 1.092 1.092 0 001.091-1.091 1.092 1.092 0 00-1.091-1.091zM9 7.633a.818.818 0 00-.818.818v4.912a.818.818 0 00.818.818.818.818 0 00.818-.818V8.454A.818.818 0 009 7.633z"/>
</svg>